<?xml version="1.0" encoding="UTF-8"?>
<svg id="Layer_1" data-name="Layer 1" xmlns="http://www.w3.org/2000/svg" viewBox="0 0 1424.57 1965.71">
  <defs>
    <style>
      .cls-1 {
        fill: #fff5ed;
      }

      .cls-1, .cls-2, .cls-3, .cls-4, .cls-5 {
        stroke-width: 0px;
      }

      .cls-2 {
        fill: #2d2d2d;
      }

      .cls-6 {
        fill: none;
        stroke: #383838;
        stroke-linecap: round;
        stroke-linejoin: round;
        stroke-width: 3px;
      }

      .cls-3 {
        fill: #383838;
      }

      .cls-4 {
        fill: #f1610d;
      }

      .cls-5 {
        fill: #f7e8df;
      }
    </style>
  </defs>
  <path class="cls-1" d="M251.88,495.22s197.13-53.77,335.27,52.06l9.3,77.68-410.35-77.68,65.77-52.06Z"/>
  <path class="cls-1" d="M1281.2,693.14l5.35,247.55,20.96,233.29,117.06,470.22-191.67,124.72-72.93-711.34,64.44-465.07h0c34.59,21.91,55.91,59.68,56.79,100.62Z"/>
  <polygon class="cls-5" points="1224.41 592.53 1223.62 610.48 1186.7 1217.96 1262.38 1749.75 1191.57 1804.37 1140.51 1116.06 1224.41 592.53"/>
  <polygon class="cls-4" points="587.16 547.28 1224.41 592.53 1165.19 1217.96 660.22 1203.32 587.16 547.28"/>
  <path class="cls-1" d="M976.27,576.53v8.84c0,59.5-48.23,107.73-107.72,107.73s-107.73-48.23-107.73-107.73v-8.84l9.2-213.9,156.99-106.55,49.26,320.45Z"/>
  <path class="cls-5" d="M769.74,369.18l-2.91,67.68s97.66-8.12,133.39-71.42v-72.59l-130.48,76.32Z"/>
  <path class="cls-1" d="M720.85,134.94s-16.24,175.46,14.52,236.3c30.76,60.83,169.98-5.03,191.64-115.16,13.49-68.63,33.56-151.48-28.15-190.29-61.71-38.81-168.71-41.29-178.01,69.15Z"/>
  <path class="cls-1" d="M918.62,247.12s12.99,22.74,36.81,14.62,28.69-83.91-31.94-70.38l-4.87,55.76Z"/>
  <path class="cls-6" d="M942.21,212.94s15.53,16.12-6.42,26.52"/>
  <polygon class="cls-3" points="660.22 1203.32 608.82 1864.38 971.97 1864.38 1007.24 1211.73 660.22 1203.32"/>
  <polygon class="cls-3" points="1165.19 1215.56 862.14 1208.22 869.5 1965.71 1248.15 1958.55 1165.19 1215.56"/>
  <path class="cls-1" d="M619.29,835.87L86.25,703.31c-74.7-18.58-109.68-104.5-69.2-169.97L332.82,160.92c10.26-12.11,24.99-19.54,40.83-20.61l128.09-8.66c27-1.82,51.74,15.03,59.93,40.82h0c7.67,24.15-1.03,50.5-21.56,65.35l-44.16,31.93c-28.39,20.53-68.34,11.79-85.56-18.73l-3.94-6.99-154.58,251.18,335.27,52.06,32.14,288.59Z"/>
  <path class="cls-5" d="M181.68,587.16l70.2-91.94s41.66-11.67,106.99-13.55l-177.19,105.49Z"/>
  <polygon class="cls-2" points="863.64 1363.45 868.51 1864.38 808.03 1864.38 863.64 1363.45"/>
  <path class="cls-3" d="M874.59,115.49s-143.17,55.64-171.25,16.03S706.23-4.69,751.16.18s33.02,41.49,65.5,41.32,141.35,4.64,134.35,102.96c-2.83,39.65-26.1,30.77-27.51,46.91s-3.43,30.56-13.18,26.61-7.41-111.04-35.73-102.48Z"/>
</svg>